<svg width="2589" height="641" viewBox="0 0 2589 641" fill="none" xmlns="http://www.w3.org/2000/svg">
<g clip-path="url(#clip0_2_2)">
<path d="M80.5 640.3C77.5 639.6 76 637.1 76 632.6C76 630.3 75.1 624.2 74 619C71.6 608 70.3 589.9 69.4 557.5C68.7 531.5 70.9 488.3 73.4 479C74.2 476 75.6 469.1 76.3 463.8C77.2 458 78.6 452.6 79.9 450.5C81.9 447.1 81.9 447 80 447C78.4 447 68 437.1 58.3 426.5C52.8 420.3 42.6 405.7 39.3 399C38.3 397.1 36.5 394.2 35.3 392.7C34 391.1 33 389.3 33 388.6C33 387.9 31.9 385.9 30.5 384C29.1 382.1 28 379.9 28 379C28 378.2 26.9 375.9 25.6 374C24.4 372.1 22.7 368.7 22 366.5C21.3 364.3 20.1 361.6 19.4 360.5C18.7 359.4 17.6 356.5 17 354C16.3 351.5 15 348.2 14 346.5C13 344.9 11.9 341.3 11.5 338.5C11.1 335.8 9.99998 331.6 8.99998 329.2C7.89998 326.9 6.59998 321.5 5.99998 317.2C5.39998 313 4.29998 307 3.39998 304C-0.300019 290.4 -0.400019 223.5 3.39998 213.2C4.29998 210.8 5.39998 205 5.99998 200.3C6.59998 195.5 7.89998 189.8 8.89998 187.6C9.89998 185.3 11.3 181.1 11.9 178.2C12.5 175.3 13.6 171.9 14.4 170.7C15.2 169.5 16.1 166.9 16.5 165C16.9 163.1 18.6 159.1 20.1 156.1C21.7 153.1 23 150 23 149.1C23 148.2 24.2 145.7 25.5 143.5C26.9 141.3 28 138.9 28 138.2C28 137.5 29.1 135.4 30.5 133.6C31.9 131.8 33 129.9 33 129.4C33 128.9 34.3 126.6 35.8 124.3C37.3 122 39.6 118.2 41 115.9C43.3 112.1 46.5 107.7 52 101C53.1 99.6 55.6 96.5 57.5 94C59.4 91.5 61.7 88.6 62.7 87.5C73.7 75.4 80.1 69.1 89.4 61.3C98.3 53.7 101 52 103.6 52C109.7 52 110.4 53.8 109.6 67.6C108.8 81.7 109.8 104 111.2 101.7C111.6 100.8 112.7 95.9 113.4 90.8C114.2 85.7 115.8 79.5 116.9 77C118 74.5 119 71.6 119 70.4C119 68.4 120.4 65.2 127.5 51C135.7 34.4 145.1 23.9 153.9 21.4C157 20.5 160.4 19.1 161.5 18.4C162.6 17.7 166 16.5 169 15.6C172 14.8 177.4 13.1 181 12C199.3 6.09999 203.2 4.99999 206.3 4.99999C208.2 4.99999 213.2 3.99999 217.6 2.79999C225 0.599992 227.3 0.499992 256.5 0.499992C283.8 0.599992 288.9 0.799992 299 2.69999C305.3 3.89999 313.4 5.09999 317 5.49999C323.5 6.09999 336 9.69999 343.5 13C345.7 13.9 349.1 15.1 351 15.5C354.3 16.1 358.5 17.9 370.5 23.6C373.3 24.9 377.1 26.7 379 27.5C385.1 30.2 394.1 35.4 400.5 40C402.2 41.2 405.8 43.5 408.5 45.3C429 58.3 460.7 90.1 475.2 112.3C480.2 119.9 479 126.3 470 140C468.4 142.5 466.2 146.2 465 148.2C460.9 155.7 457.7 160.3 449.8 170C446.9 173.6 442.8 178.8 440.7 181.5C432.6 192.1 418.5 206.9 407.5 216.3C403.7 219.6 399.8 222.9 399 223.6C385.6 235.5 364.1 249.1 351.5 253.6C348.2 254.8 341 257.4 335.5 259.4C329.8 261.5 321.2 263.6 315.5 264.5C309.9 265.2 304.2 266.4 302.6 266.9C299.2 268.3 255.2 268.3 245.5 267C241.7 266.5 233 265.4 226.3 264.5C219.5 263.7 212.7 262.4 211.2 261.6C209.6 260.8 205.5 259.5 202.1 258.7L195.9 257.2L199.2 260.1C201 261.6 202.8 262.9 203.2 263C203.6 263 204.7 263.9 205.7 264.9C206.7 266 209.1 268 211 269.4C218.2 274.6 222.4 277.5 224.9 279.1C227.1 280.4 227.5 281.4 227.5 285C227.5 287.8 227 289.5 226 290.1C221.8 292.2 213.2 296 211.1 296.5C209.9 296.9 207.2 298.3 205.3 299.6C203.3 300.9 201.2 302 200.6 302C199.9 302 197.9 303.1 196.1 304.4C194.2 305.8 191.5 307.2 189.9 307.5C188.4 307.9 186.6 308.8 186 309.5C185.3 310.3 183.5 311.6 181.9 312.4C175.9 315.4 157.5 330.7 148 340.7C137 352.3 124.5 368 119.5 376.7C118.6 378.3 116.4 382 114.5 385C112.6 388 110.1 392.3 109 394.5C107.9 396.7 106.6 399.2 106.1 400C103.3 404.6 95.3 423 93 430C92 433 90.2 437.9 89.1 440.8C87.4 445.1 87.3 446 88.5 446C89.3 446 94.2 449.5 99.3 453.7C104.5 458 110.8 463.1 113.4 465C116 466.9 118.9 469.2 119.8 470.1C120.7 471 123.5 472.8 125.8 474.1C134.8 479 136.2 479.9 137.8 481.2C139.8 482.9 154.2 490 155.6 490C156.1 490 158.7 491.1 161.4 492.5C164.1 493.9 167.1 495 167.9 495C168.8 495 171.2 495.9 173.2 497C175.2 498.1 179 499.5 181.7 500.1C184.3 500.8 187.7 501.9 189.2 502.6C190.6 503.4 195.9 504.6 200.9 505.4C205.8 506.2 211.8 507.5 214.2 508.3C218.8 509.9 230.6 511.2 257 513.1C271.2 514.1 274.9 514 283.5 512.7C289 511.8 296.2 510.8 299.5 510.5C302.8 510.1 307 509.2 308.8 508.4C310.6 507.7 315.8 506.4 320.3 505.6C324.8 504.8 330.5 503.2 333 502.1C335.5 501 338.5 500 339.8 500C342.1 500 351.8 496.2 361.5 491.4C364.3 490.1 367 489 367.6 489C368.2 489 369.8 488.2 371.1 487.2C372.4 486.2 375.1 484.7 377 484C381.9 482 386 479.4 408.1 464.2C416.2 458.6 417.8 457.9 421.4 458.2C425.4 458.5 425.5 458.6 425.8 462.3C426 465.1 425.6 466.8 424.1 468.3C423 469.5 418.3 474.5 413.8 479.4C409.2 484.3 402.6 491 399.1 494.4C395.6 497.7 391.5 501.6 390.1 503C384.1 508.7 346.9 540 339.5 545.5C335.1 548.8 330.8 552.1 330 552.8C324.2 557.8 316 564 313.5 565.4C311.9 566.3 308.5 568.6 306 570.5C303.5 572.5 299.6 574.9 297.4 576C295.1 577.1 292.7 578.6 292.1 579.4C291.4 580.2 289.6 581.2 288 581.5C286.4 581.9 284.1 583 282.8 584C281.5 585 278.9 586.5 277 587.4C275.1 588.3 270.6 590.7 267 592.6C263.4 594.5 258.7 596.8 256.5 597.6C254.3 598.4 250.7 599.9 248.5 600.9C246.3 601.9 243.2 603.2 241.5 603.8C237.4 605.2 228.4 608.8 223.5 611.1C221.3 612.1 216.9 613.6 213.8 614.5C210.7 615.3 207.8 616.4 207.5 616.9C207.2 617.5 204.4 618.4 201.2 619C198.1 619.6 193.5 621 191 622C188.5 623 184 624.2 181 624.6C178 625 173 626.2 170 627.2C167 628.2 161.5 629.5 157.8 630C154.1 630.6 149.2 631.7 146.8 632.5C144.4 633.4 136.2 634.7 128.5 635.5C120.8 636.3 112.7 637.6 110.5 638.3C106.5 639.7 84.3 641.2 80.5 640.3ZM301.6 168.9C309.4 165.1 317.8 159.1 323.6 153.1C326.6 150.1 329 147.2 329 146.7C329 146.2 330 144.4 331.3 142.7C334.1 138.8 337.8 128.2 339 121C340.4 112.1 336.9 96.9 331.3 87.9C330 85.9 329 83.8 329 83.3C329 82.8 327.9 81.4 326.5 80.2C325.1 79 324 77.6 324 77.2C324 75.5 311.2 66.3 304.5 63.1C294.4 58.4 284.1 56.9 273.9 58.6C269.5 59.4 263.7 61.1 261.2 62.5C258.6 63.9 256.2 65 255.7 65C254.6 65 246 71.1 242 74.8C240.1 76.6 239 78 239.6 78C240.1 78 241 77.6 241.6 77C243.4 75.2 258.2 73.8 267.5 74.4C274.5 75 277.9 75.8 282.8 78.1C286.2 79.7 289.4 81 289.8 81C290.2 81 291.3 81.8 292.1 82.8C293 83.7 295.3 85.7 297.3 87.2C303.2 91.8 307.7 101.2 309.7 113.3C311.3 123.1 311.2 124.3 309.6 134C308.3 142.4 307.2 145.4 304.2 150.3C299 158.9 293 164.4 284.7 168.5L277.5 172.1L287.1 171.7C294.6 171.4 297.7 170.8 301.6 168.9Z" fill="black"/>
<path d="M238 473.1C235.5 472.7 232.5 471.8 231.2 471.1C229.9 470.4 227 469.3 224.7 468.6C219.9 467.1 214.3 463.5 208.6 458.3C204.8 454.7 204.8 454.6 205.4 449.1C205.9 444.7 206.6 443 208.9 441C214.6 435.9 226.2 420.4 227.5 416C227.9 414.6 228.8 412.8 229.5 412C230.2 411.2 232.2 405.5 233.9 399.4C237.4 386.8 237.9 377.6 235.4 369C234.6 366 233.6 361.2 233.3 358.3C232.1 346.6 234.9 344.6 251.9 345.2C263.8 345.7 279.4 349.3 282.9 352.4C283.8 353.2 285.6 354.1 287 354.5C288.4 354.9 291.2 356.7 293.2 358.4C296.6 361.2 297 362 297 366.3C297 371.6 297.8 370.5 284.7 382.8C275.9 391.1 269.1 402.2 263.7 417.5C260.7 425.9 260.5 427.4 260.5 439.5C260.5 450.4 260.9 453.5 262.8 458.8C265.9 467.4 265.8 471.8 262.4 473C259.6 474.1 245.1 474.1 238 473.1Z" fill="black"/>
<path d="M273.1 464.4C270.3 460.8 269.8 455.9 270.2 435.4C270.4 421 270.8 416.9 272.1 415C273 413.6 274.3 410.7 275 408.5C275.7 406.3 276.8 403.8 277.5 403C278.2 402.2 279.6 399.9 280.5 398C284.3 390.4 297.9 378 302.4 378C305.9 378 310.7 380.5 312 383C313.8 386.4 316 401 316 409.9C316 425.5 312 439.8 305.3 448C299.9 454.5 292.9 461.6 289.2 464.1C283.3 468.1 276.1 468.2 273.1 464.4Z" fill="black"/>
<path d="M657.9 459.6C657.6 459.3 653.2 458.6 648.1 458C628.1 455.7 609.3 444.6 595 426.6C589 418.9 582 407.2 582 404.6C582 403.7 581 400.4 579.8 397.2C577.8 392 577.6 389.2 577.3 364.5C576.9 341.7 577.1 337.2 578.4 335.5C579.8 333.6 581 333.5 606.4 333.5C630.5 333.5 633.1 333.7 634.7 335.3C636.3 336.8 636.6 339.6 637 357.8C637.5 378.1 637.6 378.6 640.1 382.5C645.2 390.1 652.9 396 661.2 398.4C668.6 400.5 674.4 400.4 680.8 398.1C687.4 395.7 692.4 391.3 696.9 384.1C700.2 378.8 700.4 378.1 700.4 369.5C700.4 361.8 700 359.7 697.7 354.9C696.2 351.8 695 348.9 695 348.3C695 347.2 678.2 330.1 673.3 326.2C667.4 321.5 653.5 309.6 652.5 308.5C652 307.8 648.1 304.5 644 301C639.9 297.6 636.1 294.2 635.5 293.6C635 293 631.1 289.6 627 286.1C611.4 272.9 607.6 269.3 601.1 261.6C591.3 249.9 584 236.8 582 227.5C581.4 224.8 580.2 220.5 579.2 218C576.7 211.3 576.7 173 579.2 168.4C580.2 166.6 581.4 163 582 160.4C582.6 157.7 583.7 154.9 584.5 154C585.2 153.2 586.5 150.8 587.3 148.8C591 139.9 607.2 122 614.7 118.5C616.8 117.5 619.2 116.2 620 115.5C620.8 114.8 624 113.3 627 112.2C630 111.1 634.5 109.5 636.9 108.6C639.3 107.7 647.5 106.3 655.1 105.4C667.3 104.2 670.7 104.2 682.9 105.4C690.5 106.3 698.5 107.6 700.6 108.4C718.7 115.1 726.2 119.5 736.2 129.5C741.8 135 750 146.2 750 148.3C750 148.8 750.9 150.5 752.1 152.1C753.3 153.8 754.8 157.2 755.5 159.8C756.3 162.4 757.6 166.5 758.6 169C760 172.8 760.3 177.7 760.4 201.2C760.5 222.7 760.2 229.2 759.2 230.2C758.2 231.2 752.1 231.6 734.8 231.8C710.7 232.2 706.6 231.9 703.4 229.6C701.7 228.3 701.5 226.4 700.9 207.3L700.4 186.5L696.8 180.8C688.2 166.9 673.5 161.4 657.9 166.3C651.5 168.4 644.2 174.7 639.6 182.3C636.9 186.9 636.8 187.6 637.2 196.5C637.5 203.1 638 206.4 639.2 207.7C640 208.7 641.1 210.7 641.6 212.2C642.9 216.1 648.4 222.7 654.8 228C657.7 230.5 661.2 233.4 662.5 234.5C667 238.5 682.5 252.6 684.6 254.6C685.8 255.8 693 262 700.7 268.6C721.3 286.2 729.7 294.2 737.6 303.5C745.8 313.2 753.4 326.9 755.1 335.2C755.7 338.1 756.9 341.8 757.7 343.3C761.1 350.1 761.6 386.5 758.3 395.5C757.5 397.7 756.3 401.6 755.6 404.1C754.3 408.7 750.4 416.1 746.6 421.3C737.3 433.8 731 439.8 717.6 448.6C712 452.3 698.8 456.8 690.1 458.1C681 459.4 658.7 460.4 657.9 459.6Z" fill="black"/>
<path d="M1717 459.7C1716.7 459.4 1712.4 458.7 1707.5 458.1C1697.7 456.9 1682.8 452 1679.4 448.9C1678.3 447.9 1676.9 447 1676.3 447C1673.6 447 1661.4 436 1653.9 426.8C1646.9 418.2 1644.4 414 1641.3 406C1636.9 394.4 1636.7 392.4 1636.6 363.7C1636.5 337.2 1636.6 335.8 1638.4 334.4C1640 333.3 1645.3 333 1665.1 333C1687.9 333 1690 333.1 1692.1 334.9C1694.4 336.7 1694.5 337.5 1695.2 355.7C1695.6 366 1696.3 376.1 1696.8 378.1C1699.5 388.9 1716 399.9 1729.3 400C1731.5 400 1735.5 399.3 1738.4 398.5C1749.1 395.4 1760 381.1 1760 370.2C1760 364.3 1755.2 350.5 1751.4 345.3C1747.4 340 1736.8 329.8 1726.5 321.5C1721.8 317.7 1716 312.7 1713.6 310.5C1709 306.1 1704.1 301.8 1687.5 287.9C1674.2 276.8 1655.7 258.1 1652.9 253.1C1651.8 251.1 1649.3 246.8 1647.3 243.5C1645.4 240.2 1643.1 235 1642.3 232C1641.5 229 1640.2 225.3 1639.4 223.7C1635.7 216.7 1635.2 174.7 1638.7 165.6C1639.5 163.3 1641 159.4 1642 156.7C1642.9 154.1 1644.4 151.2 1645.2 150.2C1646 149.3 1647.2 147.2 1647.9 145.6C1652.6 134.5 1674.9 114.9 1685.7 112.4C1687.3 112 1689.9 110.9 1691.5 110C1695 107.9 1702.2 106.5 1717.7 105C1726.7 104.2 1731.4 104.3 1742.1 105.5C1757.3 107.3 1759.7 107.8 1762.5 109.5C1763.6 110.1 1766.3 111.3 1768.5 112C1773.2 113.5 1782.5 118.5 1786 121.4C1792.1 126.6 1802.2 137.5 1805.2 142.3C1816.5 160.1 1819.1 170.7 1819.8 200.3C1820 212.2 1819.9 223.6 1819.6 225.6C1818.4 231.7 1815.7 232.2 1787.9 231.8C1766.6 231.5 1763.9 231.3 1762.3 229.7C1760.7 228.2 1760.4 225.3 1759.9 208.2C1759.4 190.3 1759.2 188 1757 183.5C1753.4 175.8 1745 168.4 1737.2 166C1733.7 164.9 1729.8 164 1728.6 164C1723.8 164 1712 167.9 1709 170.4C1707.3 171.8 1705.5 173 1705.1 173C1703.9 173 1698 182.6 1696.9 186.2C1695.7 190.4 1695.8 199.3 1697 204.7C1698.1 209.3 1703.1 217.7 1707.7 222.5C1711.6 226.6 1717.9 232.2 1735 247C1743 253.9 1750.5 260.4 1751.6 261.5C1755.5 265.4 1763.6 272.5 1775 282.4C1787.4 293.1 1802 309.1 1805.1 315.5C1806.2 317.7 1807.7 320.6 1808.5 322C1815.3 334 1819.5 353.2 1819.5 372.5C1819.4 381.4 1818.9 387.2 1817.8 391C1816.9 394 1815.7 398.9 1815.1 401.9C1814.5 404.8 1813.1 408.4 1812 409.7C1810.9 411.1 1810 412.7 1810 413.3C1810 414.8 1805.4 421.4 1799.1 429C1794 435.2 1780.8 447 1779.1 447C1778.6 447 1776.8 448 1774.9 449.3C1769.9 452.7 1757.5 456.9 1749 458.1C1740.4 459.3 1717.7 460.5 1717 459.7Z" fill="black"/>
<path d="M869 455.9C867.1 455.4 860.8 454.2 855 453.1C849.2 452 842.1 450 839.3 448.6C836.5 447.2 833.9 446 833.4 446C833 446 831.8 445.3 830.8 444.3C829.8 443.4 828.1 442.2 827.1 441.6C822.6 439 813.9 431.7 811.1 428.3C795.1 408.5 793.4 405 789 381C788.5 378.5 788.1 351.3 788.1 320.5C788 267.9 788.1 264 790 256.2C791.1 251.6 792 247.1 792 246.2C792 245.3 794.6 239.3 797.7 233C803 222.5 804.5 220.6 815.1 209.8C821.4 203.3 827.2 198 827.9 198C828.6 198 830.4 197.2 831.8 196.1C833.3 195.1 835.6 193.9 837 193.6C838.4 193.2 842 191.8 845 190.5C854.5 186.4 870.8 185 910.6 185C945.5 185 945.7 185 949.1 187.3L952.5 189.6L952.8 320.7L953 451.8L949.9 454.4L946.8 457L909.7 456.9C889.2 456.8 870.9 456.4 869 455.9ZM889.4 395.9C890.7 395.2 892.4 393.6 892.9 392.1C893.7 390.3 893.9 367.9 893.8 319.5L893.5 249.6L890.1 247.3C885.8 244.4 878.6 244.3 869.8 247C861.7 249.5 855 255.7 850.6 265L847.5 271.5V321V370.5L850.8 377C855.1 385.6 859.1 389.5 867.5 393.6C873.1 396.3 875.7 397 880.7 397C884.1 397 888 396.5 889.4 395.9Z" fill="black"/>
<path d="M1022.1 454.4L1019 451.9L1018.8 350.5C1018.5 256.6 1018.4 248.9 1016.8 247.4C1015.4 246 1012.3 245.6 999.5 245C986.7 244.5 983.7 244.1 982.2 242.7C980.7 241.1 980.5 238.2 980.2 218.1C980 205.5 980.3 193.7 980.7 191.8C982.1 186.3 986.1 185 1001.3 185C1008.4 185 1015 184.5 1016.1 184C1018.7 182.5 1021.8 176.2 1023.4 168.8C1024.1 165.3 1025.7 160.7 1026.8 158.5C1028 156.3 1029 154 1029 153.3C1029 148.6 1047.9 127.3 1056 122.8C1059.8 120.7 1065.9 117.4 1071.5 114.3C1072.6 113.7 1077.3 112 1082 110.4C1090.1 107.8 1091.6 107.6 1114.8 107.2C1132.9 106.9 1139.8 107.1 1141.5 108C1145.2 110 1146 115.2 1146 137.2C1146 158 1145.3 162.9 1141.8 165.7C1141 166.4 1133 167 1121.5 167.2L1102.5 167.6L1096.5 171C1089.6 174.9 1083.5 181.2 1084.4 183.5C1084.9 184.8 1088.9 185 1112.4 185H1139.8L1142.9 187.6L1146 190.2V215.4V240.6L1143 242.8C1140.2 244.9 1139.3 245 1113 245C1084.2 245 1081.5 245.4 1079 249.9C1078.3 251.2 1078 285 1078 351.4C1078 422.4 1077.7 451.6 1076.9 453.4C1075.3 456.7 1073.1 457 1047.5 457H1025.2L1022.1 454.4Z" fill="black"/>
<path d="M1176.7 455.8C1175.8 455.1 1174.6 453.2 1174 451.7C1173.3 449.8 1173 407.3 1173 320.4C1173 177.4 1172.5 186.8 1179.7 185.6C1181.8 185.3 1199.9 185 1220 185C1264.8 185 1278.4 186.3 1289.9 191.6C1293.9 193.5 1298.9 196.3 1300.9 197.7C1305.6 201.2 1326 221.8 1326 223.1C1326 223.7 1326.8 225.4 1327.9 226.8C1332.2 232.9 1336.1 245.3 1337 255.5C1337.5 261 1337.9 307 1338 357.8C1338 455.8 1338.1 454.6 1333.5 456.4C1332.6 456.7 1321.1 457 1308 457H1284.1L1281.6 453.7L1279 450.3V363.1C1279 275.9 1278.6 265 1275.5 259C1273.1 254.4 1265.6 248.2 1260.5 246.4C1256.9 245.2 1253.2 244.9 1246.3 245.2C1231.3 245.8 1233 232.6 1233 349.4V449.5L1229.9 453.3L1226.9 457H1202.6C1184.8 457 1177.9 456.7 1176.7 455.8Z" fill="black"/>
<path d="M1446 456C1444.1 455.5 1437.8 454.3 1432 453.2C1422.4 451.3 1413.9 447.9 1405.5 442.7C1400.7 439.8 1389.5 429.5 1384.7 423.8C1372.7 409.4 1369.4 401.9 1366.9 383C1365.3 370.5 1365 361.8 1365 321C1365 274.2 1365.9 256.9 1369 246.5C1370.5 241.3 1374.6 232.1 1376.2 230.2C1377.1 229.3 1378.1 227.5 1378.5 226.2C1379.2 223.6 1388.7 212.2 1394 207.4C1395.9 205.6 1399 202.8 1400.7 201.1C1402.5 199.4 1404.5 198 1405.1 198C1405.7 198 1407.4 197.2 1408.8 196.1C1410.3 195.1 1412.6 193.9 1414 193.6C1415.4 193.2 1419 191.8 1422 190.5C1431.5 186.4 1447.9 185 1487.1 185C1523.4 185 1527.8 185.5 1529.4 189.5C1530.5 192.3 1530.1 450.9 1529 453C1527.1 456.6 1522.9 457 1485.6 456.9C1465.7 456.8 1447.9 456.4 1446 456ZM1468.6 394.5C1469.8 392.9 1470 381.1 1470 321.1C1470 281.7 1469.6 248.9 1469.2 248.2C1468.1 246.5 1462.5 245 1457.2 245C1443.9 245 1431.1 254.2 1427.1 266.5C1425.1 272.6 1425 275.1 1425 320.4C1425 364.9 1425.1 368.2 1427 374.3C1429.5 382.3 1436.3 389.6 1445.3 394C1450.8 396.7 1452.4 397 1459.3 396.7C1465.7 396.5 1467.4 396.1 1468.6 394.5Z" fill="black"/>
<path d="M1925.4 455.5C1922.6 454.7 1916.5 453.5 1911.9 452.6C1903.3 451.1 1891.4 446.4 1889.1 443.6C1888.3 442.7 1887.2 442 1886.6 442C1885.1 442 1869.9 429.5 1868.5 427.1C1868 426.2 1866.7 424.6 1865.8 423.5C1861.5 418.5 1858 413.6 1858 412.6C1858 411.9 1856.9 409.9 1855.5 408C1854.1 406.2 1852.7 403 1852.4 401.1C1852 399.1 1850.8 395.3 1849.6 392.5C1847.5 387.6 1847.5 386.4 1847.5 321.5V255.5L1849.8 250.3C1851 247.5 1852 244.3 1852 243.3C1852 240.2 1860.2 225.5 1866.3 217.5C1872.3 209.8 1885 198 1887.4 198C1888.1 198 1889.3 197.3 1890 196.6C1890.6 195.8 1892.8 194.6 1894.8 193.9C1896.8 193.3 1900.8 191.7 1903.5 190.4C1912.6 186.2 1929.5 184.9 1970.8 185.2L2007.1 185.5L2008.9 187.9C2010.6 190.2 2010.8 197.1 2011.5 318.6L2012.2 447L2009.9 451.7L2007.5 456.5L1969 456.7C1938.9 456.8 1929.4 456.6 1925.4 455.5ZM1950 393.8C1951.9 390.6 1952 388.5 1952 320.3V250.2L1948.9 247.6C1945 244.3 1938.1 244.1 1928.8 247C1921.9 249.1 1914.8 255 1910 262.5L1907.5 266.5L1907.2 319.4L1906.9 372.3L1910.1 378.4C1913 384 1920.1 391.9 1922.5 392C1923.1 392 1925.5 393.1 1928 394.5C1931.7 396.5 1934 396.9 1940.3 397C1948 397 1948 397 1950 393.8Z" fill="black"/>
<path d="M2082.2 456C2081 455.5 2079.5 453.9 2079 452.5C2078.4 450.8 2078 413.2 2078 350.2C2078 295.4 2077.6 250 2077.2 249.4C2075 246.1 2070.1 245 2057 245C2038.1 245 2038.6 246.1 2039.2 212.2C2039.6 183.8 2038.1 185.8 2059.5 185C2071.2 184.6 2075.3 184.1 2076.4 183C2077.7 181.7 2084 164.1 2084 161.8C2084 160.2 2091 146.6 2094 142.4C2097.6 137.4 2108.7 126.8 2114 123.5C2116.1 122.2 2118.1 120.6 2118.4 120.1C2118.8 119.6 2120.7 118.6 2122.8 117.9C2124.8 117.3 2127.6 115.9 2128.9 114.9C2130.1 113.9 2132.8 112.8 2134.9 112.4C2136.9 112 2140.8 110.8 2143.5 109.7C2147.9 107.9 2151.4 107.7 2174 107.3C2195.7 106.9 2199.8 107 2201.5 108.3C2203.4 109.8 2203.5 111 2203.5 136.3C2203.5 160.6 2203.3 163 2201.7 164.8C2200 166.7 2198.4 166.9 2180.7 167.2C2161.6 167.5 2161.5 167.5 2156 170.5C2150.7 173.3 2145.8 177.6 2144 181C2142 184.7 2144.4 185 2172.6 185H2199.9L2201.9 187.6C2203.9 190.1 2204 191.5 2204 215.4C2204 237.6 2203.8 240.8 2202.2 242.7C2200.5 244.9 2200 244.9 2171.4 245.2C2144.3 245.5 2142.1 245.6 2140.1 247.4L2138 249.3V349.8V450.2L2134.6 453.6L2131.2 457L2107.9 456.9C2095 456.9 2083.5 456.5 2082.2 456Z" fill="black"/>
<path d="M2236.5 456.2C2235.9 455.8 2234.4 454.2 2233.2 452.6L2231 449.7V320.8V191.8L2234.4 188.4L2237.8 185H2276.4C2321.4 185 2337.7 186.3 2347 190.7C2353.2 193.7 2362.3 199.5 2365.4 202.5C2366.6 203.6 2369.1 205.9 2371 207.5C2376.3 212.1 2384.6 222.1 2386.4 226C2387.3 227.9 2388.7 230.6 2389.4 232C2391.6 235.8 2395.1 246.9 2396 253C2396.5 256 2396.9 301.6 2396.9 354.3C2397 459.9 2397.3 455.1 2390.9 456.4C2389.2 456.7 2378.1 457 2366.3 457C2343 457 2340.5 456.5 2338.1 451.3C2337.3 449.6 2337 421 2337 357C2337 299.1 2336.6 264.2 2336 262.5C2334.9 259.6 2334.6 259.2 2329.1 252.9C2324.1 247.3 2317.4 245 2305.5 245C2298.7 245 2297.3 245.3 2294.4 247.5L2291 250.1L2290.8 350.3C2290.5 454.4 2290.5 453.6 2286.6 456.2C2286 456.6 2274.7 457 2261.5 457C2248.3 457 2237 456.6 2236.5 456.2Z" fill="black"/>
<path d="M2502.5 455.5C2499.8 454.7 2494.1 453.6 2490 452.9C2482.2 451.7 2471.3 447.5 2465.7 443.7C2459.1 439.1 2453.8 435.1 2450.2 431.8C2445.8 427.8 2435.6 414.4 2433.8 410.4C2433.2 408.8 2431.8 406.4 2430.9 405C2429.9 403.6 2428.9 400.6 2428.5 398.5C2428.1 396.3 2427.1 392.3 2426.2 389.5C2424.7 385 2424.5 377.6 2424.5 321C2424.5 264.2 2424.7 257.1 2426.2 253.5C2427.1 251.2 2428.1 247.3 2428.5 244.7C2428.9 242.1 2430 239 2431 237.7C2431.9 236.5 2433.1 234.4 2433.5 233C2434.9 228.2 2441.3 219.7 2451.2 209.4C2456.7 203.7 2462.2 198.8 2463.3 198.4C2464.5 198.1 2466.2 197.1 2467.1 196.4C2467.9 195.6 2471.3 194.1 2474.5 193C2477.7 191.9 2480.8 190.6 2481.4 190.1C2485.7 186.8 2508 185 2546.8 185H2582.1L2585.6 187.6L2589 190.2V320.4V450.6L2586.1 453.8L2583.1 457L2545.3 456.9C2516.5 456.9 2506.3 456.5 2502.5 455.5ZM2525.1 396C2530 393.3 2530 394 2530 321.3C2530 284 2529.7 252.5 2529.4 251.3C2527.8 245.2 2517.4 243.4 2505.7 247C2497.9 249.4 2490.9 255.8 2486.4 264.5L2483.5 270.3V321.4V372.5L2485.8 375.4C2487 377 2488 378.9 2488 379.7C2488 382.6 2496.6 390.3 2503.5 393.6C2509.1 396.3 2511.7 397 2516.8 397C2520.3 397 2524 396.5 2525.1 396Z" fill="black"/>
<path d="M193 434.2C189.6 430.7 188.6 424.9 188.7 407.5C188.7 395 189.2 392.3 193.2 382.8C196.5 375 200.4 369.4 206.9 363.2L212.5 357.9L218.5 358.2C224 358.5 224.6 358.7 226 361.5C228.2 366 227.9 393.9 225.6 400C224.6 402.5 223.3 406.5 222.6 409C220.7 415.6 215.7 423.8 209.4 430.8C204.4 436.4 203.5 437 199.8 437C196.8 437 195.2 436.3 193 434.2Z" fill="black"/>
</g>
<defs>
<clipPath id="clip0_2_2">
<rect width="2589" height="641" fill="white"/>
</clipPath>
</defs>
</svg>
